<svg version="1.1" viewBox="0.000000 0.000000 96.000000 96.000000" xmlns="http://www.w3.org/2000/svg" xmlns:xlink="http://www.w3.org/1999/xlink" id="Icons_Books" overflow="hidden"><path d=" M 90.599998 36.299999 L 85.400002 34.400002 L 85.400002 23.500000 L 90.599998 21.299999 L 55.400002 8.300000 L 12.600000 23.299999 C 8.500000 25.299999 8.400000 30.799999 8.400000 35.299999 C 8.400000 36.799999 8.600000 38.299999 8.900000 39.700001 C 5.500000 41.900002 5.400000 47.000000 5.400000 51.299999 C 5.400000 54.799999 6.200000 58.000000 8.400000 60.000000 C 7.900000 61.700001 8.200000 63.799999 8.200000 66.300003 C 8.200000 70.800003 9.400000 74.900002 13.400000 76.300003 L 41.200001 87.800003 L 90.400002 67.400002 L 85.199997 65.500000 L 85.199997 54.500000 L 90.400002 52.299999 L 82.400002 49.299999 L 82.400002 39.700001 L 90.599998 36.299999 Z M 13.800000 30.299999 L 41.599998 41.200001 L 81.500000 25.100000 L 81.500000 33.700001 L 41.599998 50.299999 L 13.800000 39.299999 L 13.800000 30.299999 Z M 81.300003 64.800003 L 41.400002 81.300003 L 13.500000 70.300003 L 13.500000 62.500000 L 38.400002 72.699997 L 81.400002 55.700001 L 81.300003 64.800003 Z M 78.500000 49.799999 L 38.599998 66.300003 L 10.800000 55.299999 L 10.800000 46.299999 L 39.400002 57.700001 L 78.599998 41.299999 L 78.599998 49.799999 Z"/></svg>