<svg version="1.1" viewBox="0.000000 0.000000 96.000000 96.000000" xmlns="http://www.w3.org/2000/svg" xmlns:xlink="http://www.w3.org/1999/xlink" id="Icons_OpenBook" overflow="hidden"><path d=" M 86.000000 22.000000 L 86.000000 71.000000 L 10.000000 71.000000 L 10.000000 22.000000 L 4.000000 22.000000 L 4.000000 78.000000 L 39.000000 78.000000 C 39.000000 79.699997 40.299999 81.000000 42.000000 81.000000 L 54.000000 81.000000 C 55.700001 81.000000 57.000000 79.699997 57.000000 78.000000 L 92.000000 78.000000 L 92.000000 22.000000 L 86.000000 22.000000 Z"/><path d=" M 82.000000 16.000000 L 14.000000 16.000000 L 14.000000 67.000000 L 82.000000 67.000000 L 82.000000 16.000000 Z M 20.000000 22.000000 L 46.000000 22.000000 L 46.000000 61.000000 L 20.000000 61.000000 L 20.000000 22.000000 Z M 76.000000 61.000000 L 50.000000 61.000000 L 50.000000 22.000000 L 76.000000 22.000000 L 76.000000 61.000000 Z"/><rect x="56.000000" y="32.000000" width="14.000000" height="3.000000"/><rect x="56.000000" y="38.000000" width="14.000000" height="3.000000"/><rect x="56.000000" y="44.000000" width="9.700000" height="3.000000"/></svg>