<svg version="1.1" viewBox="0.000000 0.000000 96.000000 96.000000" xmlns="http://www.w3.org/2000/svg" xmlns:xlink="http://www.w3.org/1999/xlink" id="Icons_FilmStrip" overflow="hidden"><path d=" M 70.000000 20.000000 L 62.000000 20.000000 L 62.000000 14.000000 L 70.000000 14.000000 L 70.000000 20.000000 Z M 70.000000 35.500000 L 62.000000 35.500000 L 62.000000 29.500000 L 70.000000 29.500000 L 70.000000 35.500000 Z M 70.000000 51.000000 L 62.000000 51.000000 L 62.000000 45.000000 L 70.000000 45.000000 L 70.000000 51.000000 Z M 70.000000 66.500000 L 62.000000 66.500000 L 62.000000 60.500000 L 70.000000 60.500000 L 70.000000 66.500000 Z M 70.000000 82.000000 L 62.000000 82.000000 L 62.000000 76.000000 L 70.000000 76.000000 L 70.000000 82.000000 Z M 33.000000 20.000000 L 25.000000 20.000000 L 25.000000 14.000000 L 33.000000 14.000000 L 33.000000 20.000000 Z M 33.000000 35.500000 L 25.000000 35.500000 L 25.000000 29.500000 L 33.000000 29.500000 L 33.000000 35.500000 Z M 33.000000 51.000000 L 25.000000 51.000000 L 25.000000 45.000000 L 33.000000 45.000000 L 33.000000 51.000000 Z M 33.000000 66.500000 L 25.000000 66.500000 L 25.000000 60.500000 L 33.000000 60.500000 L 33.000000 66.500000 Z M 33.000000 82.000000 L 25.000000 82.000000 L 25.000000 76.000000 L 33.000000 76.000000 L 33.000000 82.000000 Z M 20.000000 8.000000 L 20.000000 88.000000 L 76.000000 88.000000 L 76.000000 8.000000 L 20.000000 8.000000 Z"/></svg>