<svg version="1.1" viewBox="0.000000 0.000000 96.000000 96.000000" xmlns="http://www.w3.org/2000/svg" xmlns:xlink="http://www.w3.org/1999/xlink" id="Icons_Music" overflow="hidden"><path d=" M 83.599998 11.500000 L 30.600000 23.900000 L 30.600000 66.800003 C 28.000000 66.199997 24.799999 66.400002 21.700001 67.599998 C 15.200000 70.000000 11.200000 75.400002 12.800000 79.699997 C 14.400000 84.000000 20.900000 85.599998 27.400000 83.300003 C 33.299999 81.199997 37.099998 76.500000 36.599998 72.500000 L 36.599998 30.799999 L 77.599998 21.200001 L 77.599998 57.700001 C 75.000000 57.099998 71.800003 57.299999 68.599998 58.500000 C 62.099998 60.900002 58.099998 66.300003 59.700001 70.599998 C 61.299999 74.900002 67.800003 76.500000 74.300003 74.199997 C 79.699997 72.199997 83.300003 68.199997 83.599998 64.400002 L 83.599998 64.400002 L 83.599998 11.500000 Z"/></svg>