<svg version="1.1" viewBox="0.000000 0.000000 96.000000 96.000000" xmlns="http://www.w3.org/2000/svg" xmlns:xlink="http://www.w3.org/1999/xlink" id="Icons_Users" overflow="hidden"><g><circle cx="24.000000" cy="30.800000" r="9.000000"/><circle cx="72.000000" cy="30.800000" r="9.000000"/><path d=" M 66.000000 74.199997 L 66.000000 65.199997 C 66.000000 63.799999 65.400002 62.400002 64.199997 61.599998 C 61.799999 59.599998 58.599998 58.200001 55.400002 57.400002 C 53.200001 56.799999 50.599998 56.200001 48.000000 56.200001 C 45.599998 56.200001 43.000000 56.599998 40.599998 57.400002 C 37.400002 58.200001 34.400002 59.799999 31.799999 61.599998 C 30.600000 62.599998 30.000000 63.799999 30.000000 65.199997 L 30.000000 74.199997 L 66.000000 74.199997 Z"/><circle cx="48.000000" cy="44.800000" r="9.000000"/><path d=" M 88.199997 47.599998 C 85.800003 45.599998 82.599998 44.200001 79.400002 43.400002 C 77.199997 42.799999 74.599998 42.200001 72.000000 42.200001 C 69.599998 42.200001 67.000000 42.599998 64.599998 43.400002 C 63.400002 43.799999 62.200001 44.200001 61.000000 44.799999 L 61.000000 45.000000 C 61.000000 48.400002 59.599998 51.599998 57.400002 53.799999 C 61.200001 55.000000 64.199997 56.599998 66.599998 58.400002 C 67.199997 59.000000 67.800003 59.400002 68.199997 60.200001 L 90.000000 60.200001 L 90.000000 51.200001 C 90.000000 49.799999 89.400002 48.400002 88.199997 47.599998 Z"/><path d=" M 29.400000 58.400002 L 29.400000 58.400002 C 32.200001 56.400002 35.400002 54.799999 38.599998 53.799999 C 36.400002 51.400002 35.000000 48.400002 35.000000 45.000000 C 35.000000 44.799999 35.000000 44.799999 35.000000 44.599998 C 33.799999 44.200001 32.599998 43.599998 31.400000 43.400002 C 29.200001 42.799999 26.600000 42.200001 24.000000 42.200001 C 21.600000 42.200001 19.000000 42.599998 16.600000 43.400002 C 13.400000 44.400002 10.400000 45.799999 7.800000 47.599998 C 6.600000 48.400002 6.000000 49.799999 6.000000 51.200001 L 6.000000 60.200001 L 27.600000 60.200001 C 28.200001 59.400002 28.600000 59.000000 29.400000 58.400002 Z"/></g></svg>