<svg version="1.1" viewBox="0.000000 0.000000 96.000000 96.000000" xmlns="http://www.w3.org/2000/svg" xmlns:xlink="http://www.w3.org/1999/xlink" id="Icons_MapWithPin" overflow="hidden"><path d=" M 68.000000 30.200001 C 65.599998 30.200001 63.599998 28.200001 63.700001 25.700001 C 63.700001 23.299999 65.699997 21.299999 68.099998 21.299999 C 70.500000 21.299999 72.500000 23.299999 72.500000 25.700001 C 72.500000 26.900000 72.000000 28.000000 71.199997 28.799999 C 70.300003 29.700001 69.199997 30.200001 68.000000 30.200001 Z M 63.700001 16.299999 C 61.500000 17.100000 59.799999 18.799999 58.700001 20.799999 C 57.299999 23.500000 57.099998 26.600000 58.200001 29.400000 L 63.000000 39.799999 L 66.199997 46.400002 C 66.500000 47.099998 67.199997 47.500000 68.000000 47.500000 C 68.800003 47.500000 69.500000 47.099998 69.800003 46.400002 L 73.000000 39.799999 L 77.800003 29.500000 C 78.300003 28.299999 78.500000 27.000000 78.500000 25.700001 C 78.500000 18.700001 71.300003 13.400000 63.700001 16.299999 Z"/><path d=" M 46.000000 72.800003 L 30.000000 64.800003 L 30.000000 32.200001 L 46.000000 40.200001 L 46.000000 72.800003 Z M 26.000000 64.800003 L 14.000000 70.800003 L 14.000000 38.200001 L 26.000000 32.200001 L 26.000000 64.800003 Z M 81.400002 31.200001 L 81.400002 31.200001 L 78.900002 36.599998 L 82.000000 38.200001 L 82.000000 70.800003 L 70.000000 64.800003 L 70.000000 51.500000 L 66.000000 51.500000 L 66.000000 64.800003 L 50.000000 72.800003 L 50.000000 40.200001 L 57.099998 36.599998 L 54.599998 31.200001 L 48.000000 34.500000 L 28.000000 24.500000 L 8.000000 34.500000 L 8.000000 80.500000 L 28.000000 70.500000 L 48.000000 80.500000 L 68.000000 70.500000 L 88.000000 80.500000 L 88.000000 34.500000 L 81.400002 31.200001 Z"/></svg>