<svg version="1.1" viewBox="0.000000 0.000000 96.000000 96.000000" xmlns="http://www.w3.org/2000/svg" xmlns:xlink="http://www.w3.org/1999/xlink" id="Icons_Volume" overflow="hidden"><path d=" M 73.500000 22.000000 L 69.599998 25.900000 C 82.000000 38.299999 82.000000 58.500000 69.599998 70.900002 L 73.500000 74.800003 C 88.099998 60.299999 88.099998 36.599998 73.500000 22.000000 Z" stroke="none" stroke-width="1.000000" stroke-linecap="butt" fill="#757575" fill-opacity="1.000000"/><path d=" M 65.599998 29.799999 L 61.700001 33.700001 C 69.800003 41.799999 69.800003 54.900002 61.700001 63.099998 L 65.599998 67.000000 C 75.900002 56.700001 75.900002 40.099998 65.599998 29.799999 Z" stroke="none" stroke-width="1.000000" stroke-linecap="butt" fill="#757575" fill-opacity="1.000000"/><path d=" M 57.900002 37.799999 L 54.000000 41.700001 C 57.799999 45.500000 57.799999 51.599998 54.000000 55.400002 L 57.900002 59.299999 C 63.900002 53.299999 63.900002 43.700001 57.900002 37.799999 Z" stroke="none" stroke-width="1.000000" stroke-linecap="butt" fill="#757575" fill-opacity="1.000000"/><path d=" M 3.500000 34.599998 L 3.500000 61.400002 L 22.900000 61.400002 L 48.000000 82.000000 L 48.000000 14.000000 L 22.900000 34.599998 Z" stroke="none" stroke-width="1.000000" stroke-linecap="butt" fill="#757575" fill-opacity="1.000000"/></svg>